<svg width="100%" height="100%" viewBox="0 0 1024 1024" version="1.1" xmlns="http://www.w3.org/2000/svg" xmlns:xlink="http://www.w3.org/1999/xlink" xml:space="preserve" xmlns:serif="http://www.serif.com/" style="fill-rule:evenodd;clip-rule:evenodd;stroke-linejoin:round;stroke-miterlimit:2;">
	<g transform="matrix(2.22001,0,0,2.22001,-624.519,-510.419)">
		<path d="M451.675,232.248L572.602,232.22L610.218,232.222C627.095,232.236 640.642,231.521 657.296,235.517C676.854,240.238 694.743,250.231 709.019,264.41C727.11,282.228 738.593,305.677 741.574,330.895C742.612,340.455 742.345,353.103 742.354,362.887L742.292,511.754L742.213,555.039C742.167,570.912 742.81,587.432 739.132,602.893C734.292,623.269 723.812,641.87 708.891,656.566C690.888,674.399 667.354,685.577 642.157,688.264C633.402,689.146 622.372,688.892 613.466,688.901L573.75,688.911L449.982,688.868L413.29,688.881C397.678,688.889 384.228,689.505 368.853,685.925C348.16,681.196 329.213,670.748 314.172,655.771C290.442,632.204 281.714,604.518 281.604,571.865L281.628,413.156L281.622,367.719C281.621,351.528 280.857,335.115 284.455,319.286C289.152,298.63 299.634,279.738 314.673,264.82C332.929,246.625 356.925,235.314 382.579,232.813C390.946,232.025 402.919,232.302 411.545,232.291L451.675,232.248Z" style="fill:url(#_Linear1);fill-rule:nonzero;"/>
		<path d="M349.453,490.82L349.481,459.037C349.481,455.253 349.264,442.699 349.783,439.447C352.097,424.975 356.433,409.42 359.747,394.997C362.829,383.562 364.781,371.512 368.356,360.235C371.804,349.36 383.145,348.136 392.492,348.086L569.905,348.131L629.438,348.187C640.302,348.194 651.353,347.928 662.175,348.635C668.625,349.056 675.325,355.792 676.149,362.138C676.803,367.18 676.595,372.677 676.581,377.773L676.512,402.231L676.497,490.272C680.189,493.772 680.194,494.826 680.562,499.77C681.708,515.194 663.034,512.713 652.646,512.701C652.308,508.469 651.247,504.326 649.509,500.452C644.624,489.6 636.786,484.28 626.058,480.252C631.04,460.75 620.048,442.649 600.031,438.237C596.597,437.48 593.464,437.596 589.957,437.664C591.273,439.044 595.4,443.136 597.063,443.68C612.941,447.334 624.939,460.783 620.034,477.497C616.123,490.824 601.678,510.192 592.571,520.842L582.283,506.843C578.758,511.649 575.72,515.457 571.887,520.025L566.207,512.834C562.18,512.838 557.799,512.933 553.804,512.834L454.243,512.891C453.664,505.186 451.328,498.344 446.386,492.317C440.623,485.22 432.259,480.724 423.159,479.834C413.882,479.07 404.679,482.016 397.571,488.026C389.737,494.594 386.143,502.716 385.285,512.728C375.436,512.829 365.605,513.171 355.774,512.55C344.004,511.807 339.123,497.128 349.453,490.82ZM372.374,369.153C370.694,371.983 365.782,393.497 365.024,397.834C363.058,409.078 355.095,431.062 355.747,441.796C357.975,445.518 371.731,444.41 376.122,444.369C386.771,444.542 394.031,444.51 392.578,430.906C391.283,418.788 395.015,380.76 391.091,371.361C387.367,367.873 377.654,368.992 372.374,369.153ZM472.934,444.504C464.358,448.469 472.189,454.338 476.17,458.306C471.328,458.237 445.682,456.854 443.352,459.328C442.578,460.151 441.962,461.51 441.997,462.658C442.035,463.89 442.753,464.827 443.698,465.542C447.918,468.735 467.392,467.043 473.506,467.104L474.275,467.471C473.724,470.033 467.708,473.731 469.428,478.755C474.018,483.695 480.323,476.136 483.561,472.551C489.475,466.003 495.252,463.458 486.448,455.746C482.652,452.421 478.089,445.581 472.934,444.504ZM409.878,369.064C407.731,370.023 405.761,371.003 404.918,373.361C403.575,377.121 403.899,420.027 405.318,422.515C406.41,424.432 407.682,425.68 409.892,426.163C415.43,427.375 451.007,427.096 458.247,426.468C460.211,425.281 463.012,423.284 463.181,420.706C463.93,409.877 463.393,398.289 463.481,387.459C463.531,381.341 464.959,369.279 456.276,369.204C441.242,369.076 424.869,368.48 409.878,369.064ZM479.79,369.142C477.682,370.02 475.773,370.935 474.904,373.202C473.422,377.071 473.604,419.386 475.335,422.604C476.129,424.078 477.478,425.488 479.121,425.946C485.578,427.745 519.017,426.641 527.908,426.525C529.801,425.525 532.104,424.166 532.823,421.995C534.257,417.659 533.85,384.434 533.372,378.701C533.185,376.458 532.758,373.984 531.715,371.966C531.019,370.621 530.262,370.081 528.808,369.692C522.622,368.036 487.824,368.798 479.79,369.142ZM619.837,369.062C617.739,370.082 615.844,371.142 615.019,373.464C614.02,376.275 613.76,419.902 615.026,422.42C615.978,424.313 617.471,425.699 619.53,426.235C625.547,427.804 644.925,427.082 651.689,426.456C653.279,425.627 656.365,423.843 656.685,421.812C658.002,413.468 657.166,402.075 657.423,394.01C658.284,367.01 656.242,368.283 631.382,368.939C628.478,369.016 623.139,369.025 619.837,369.062ZM549.762,369.149C547.713,370.142 545.641,371.237 544.871,373.547C543.706,377.044 543.828,419.71 545.187,422.318C546.113,424.094 547.365,425.312 549.331,425.847C555.443,427.514 589.962,426.862 598.167,426.482C600.035,425.288 602.758,423.495 603.016,420.966C603.938,411.829 603.334,402.463 603.508,393.262C603.618,387.478 603.587,381.466 603.296,375.677C603.135,372.479 600.51,369.662 597.255,369.319C590.305,368.587 583.273,369.074 576.292,368.962C567.769,369.144 558.12,368.711 549.762,369.149Z" style="fill:#fff;"/>
		<path d="M565.912,512.669C558.458,503.291 550.597,491.666 544.806,481.124C540.259,472.845 538.784,463.659 541.837,454.513C544.563,446.441 550.368,439.772 557.987,435.959C565.245,432.356 573.825,431.509 581.431,434.334C583.938,435.264 586.79,436.637 589.133,437.401L589.957,437.664C591.273,439.044 595.4,443.136 597.063,443.68C612.941,447.334 624.939,460.783 620.034,477.497C616.123,490.824 601.678,510.192 592.571,520.842L582.283,506.843C578.758,511.649 575.72,515.457 571.887,520.025C571.887,520.025 565.917,512.674 565.912,512.669Z" style="fill:url(#_Linear2);fill-rule:nonzero;"/>
		<path d="M597.063,443.68C612.941,447.334 624.939,460.783 620.034,477.497C616.123,490.824 601.678,510.192 592.571,520.842L582.283,506.843C587.354,500.148 592.904,489.722 597.447,484.215C601.9,473.046 602.899,474.961 603.983,461.942C603.053,460.228 602.466,451.058 599.403,448.347C599.013,448.001 596.841,444.882 597.063,443.68Z" style="fill:#fff;fill-rule:nonzero;"/>
		<path d="M603.983,461.942C609.441,470.555 607.378,480.462 597.447,484.215C601.9,473.046 602.899,474.961 603.983,461.942Z" style="fill:#2d3138;fill-rule:nonzero;"/>
		<path d="M565.886,450.207C569.127,448.785 571.74,447.905 575.001,449.553C579.495,449.327 584.009,454.935 586.207,458.288C587.915,461.777 588.264,465.122 586.902,468.846C585.611,472.44 582.995,475.403 579.589,477.129C575.744,479.191 568.843,481.051 565.244,477.623C561.901,477.025 559.87,474.401 558.383,471.588C553.495,464.345 557.871,453.455 565.886,450.207Z" style="fill:#fff;fill-rule:nonzero;"/>
		<path d="M565.886,450.207C569.127,448.785 571.74,447.905 575.001,449.553C565.978,457.647 563.652,465.885 565.244,477.623C561.901,477.025 559.87,474.401 558.383,471.588C553.495,464.345 557.871,453.455 565.886,450.207Z" style="fill:#2d3138;fill-rule:nonzero;"/>
		<path d="M558.383,471.588C553.495,464.345 557.871,453.455 565.886,450.207C560.743,458.154 559.157,462.054 558.383,471.588Z" style="fill:#fff;fill-rule:nonzero;"/>
		<path d="M586.207,458.288C587.915,461.777 588.264,465.122 586.902,468.846C585.611,472.44 582.995,475.403 579.589,477.129C577.127,468.514 579.449,463.557 586.207,458.288Z" style="fill:#2d3138;fill-rule:nonzero;"/>
		<path d="M354.544,466.53C359.713,466.281 366.964,465.173 369.021,471.371C370.016,474.369 368.827,481.129 367.473,483.854C363.639,485.416 358.701,484.952 354.491,484.854C354.428,478.746 354.446,472.637 354.544,466.53Z" style="fill:#2d3138;fill-rule:nonzero;"/>
		<path d="M414.861,488.754C429.114,485.971 442.909,495.321 445.603,509.591C448.298,523.861 438.863,537.598 424.576,540.205C410.414,542.788 396.823,533.453 394.151,519.307C391.48,505.161 400.731,491.512 414.861,488.754Z" style="fill:#fff;fill-rule:nonzero;"/>
		<path d="M417.503,502.739C423.903,501.435 430.15,505.565 431.456,511.965C432.763,518.365 428.635,524.613 422.236,525.922C415.833,527.232 409.581,523.102 408.273,516.698C406.966,510.295 411.099,504.044 417.503,502.739Z" style="fill:#2d3138;fill-rule:nonzero;"/>
		<path d="M534.605,523.061C540.572,522.559 546.132,523.146 551.061,526.807C574.347,544.103 551.679,569.181 540.333,584.484C539.515,585.634 539.359,585.728 538.293,586.682C533.447,583.644 517.699,559.015 516.194,552.445C512.939,538.229 519.778,526.645 534.605,523.061Z" style="fill:#fff;fill-rule:nonzero;"/>
		<path d="M536.643,534.205C543.019,533.37 548.871,537.847 549.732,544.22C550.593,550.593 546.139,556.462 539.77,557.349C533.364,558.241 527.453,553.756 526.587,547.347C525.721,540.937 530.23,535.045 536.643,534.205Z" style="fill:#2d3138;fill-rule:nonzero;"/>
		<path d="M343.352,539.342C364.104,546.622 390.681,548.136 412.769,549.642C444.697,551.794 476.693,552.775 508.693,552.583C509.9,557.224 511.063,559.723 513.034,564.172C485.855,565.289 365.038,561.787 346.378,546.412C344.056,544.5 343.652,542.199 343.352,539.342Z" style="fill:#199cd5;fill-rule:nonzero;"/>
		<path d="M623.008,488.253C627.864,489.489 632.082,491.484 635.823,494.916C641.203,499.931 644.276,506.942 644.318,514.297C644.331,521.305 641.536,528.027 636.557,532.96C624.965,544.592 609.312,542.777 598.258,531.578L595.692,528.236C599.17,523.748 602.573,519.203 605.9,514.602C606.669,518.157 607.992,521.931 611.181,523.978C616.864,527.628 624.061,526.87 627.842,521.087C629.641,518.328 630.27,514.968 629.588,511.746C627.777,503.251 620.703,501.874 613.373,503.7C616.957,498.795 619.988,493.514 623.008,488.253Z" style="fill:#fff;fill-rule:nonzero;"/>
		<path d="M679.4,539.077C679.924,539.733 679.999,540.399 680.082,541.234C680.268,543.109 679.095,545.698 677.744,546.967C664.565,559.347 584.634,563.102 564.063,563.513L563.627,562.772C565.267,558.751 566.322,556.148 567.454,551.993C589.587,552.25 661.797,548.056 679.4,539.077Z" style="fill:#199cd5;fill-rule:nonzero;"/>
	</g>
	<defs>
		<linearGradient id="_Linear1" x1="0" y1="0" x2="1" y2="0" gradientUnits="userSpaceOnUse" gradientTransform="matrix(11.234,-460.351,460.351,11.234,506.09,690.443)"><stop offset="0" style="stop-color:#1c1e23;stop-opacity:1"/><stop offset="1" style="stop-color:#3b4044;stop-opacity:1"/></linearGradient>
		<linearGradient id="_Linear2" x1="0" y1="0" x2="1" y2="0" gradientUnits="userSpaceOnUse" gradientTransform="matrix(6.23212,-84.298,84.298,6.23212,567.741,517.722)"><stop offset="0" style="stop-color:#0989cb;stop-opacity:1"/><stop offset="1" style="stop-color:#1da8e1;stop-opacity:1"/></linearGradient>
	</defs>
</svg>
