<?xml version="1.0" encoding="UTF-8" standalone="no"?>
<!DOCTYPE svg PUBLIC "-//W3C//DTD SVG 1.1//EN" "http://www.w3.org/Graphics/SVG/1.1/DTD/svg11.dtd">
<svg width="100%" height="100%" viewBox="0 0 1024 1024" version="1.1" xmlns="http://www.w3.org/2000/svg" xmlns:xlink="http://www.w3.org/1999/xlink" xml:space="preserve" xmlns:serif="http://www.serif.com/" style="fill-rule:evenodd;clip-rule:evenodd;stroke-linejoin:round;stroke-miterlimit:2;">
    <path d="M1024,208.308L1024,815.692C1024,930.66 930.66,1024 815.692,1024L208.308,1024C93.34,1024 0,930.66 0,815.692L0,208.308C0,93.34 93.34,0 208.308,0L815.692,0C930.66,0 1024,93.34 1024,208.308Z" style="fill:#f8f9ff;"/>
    <path d="M271.977,875.985C260.824,875.878 251.511,872.082 244.039,864.595C236.566,857.109 232.883,847.891 232.989,836.933L233.758,757.651C222.074,744.647 212.7,730.217 205.636,714.351C198.573,698.491 195.132,681.215 195.313,662.523L198.876,295.133C199.394,241.636 225.032,202.725 275.789,178.4C326.546,154.075 406.376,142.44 515.281,143.496C628.123,144.591 708.702,157.297 757.02,181.616C805.333,205.935 829.223,245.81 828.685,301.24L825.126,668.632C824.942,687.324 821.169,704.528 813.799,720.252C806.429,735.972 796.775,750.223 784.842,762.999L784.076,842.276C783.97,853.235 780.105,862.379 772.488,869.72C764.875,877.061 755.488,880.674 744.336,880.567L704.973,880.184C693.821,880.077 684.507,876.281 677.034,868.794C669.561,861.308 665.878,852.09 665.984,841.132L666.359,802.458L351.453,799.404L351.078,838.077C350.972,849.036 347.111,858.18 339.494,865.521C331.878,872.862 322.493,876.475 311.34,876.368L271.977,875.985ZM516.125,259.533L736.558,261.671L295.691,257.396L516.125,259.533ZM668.984,531.752L275.352,527.931L747.71,532.513L668.984,531.752ZM276.102,450.588L748.462,455.165L749.587,339.15L277.227,334.569L276.102,450.588ZM414.248,667.066C425.838,655.895 431.711,642.255 431.868,626.143C432.024,610.025 426.416,596.274 415.044,584.885C403.673,573.495 389.787,567.72 373.385,567.56C356.984,567.4 342.988,572.903 331.398,584.075C319.807,595.241 313.934,608.881 313.778,624.998C313.622,641.111 319.229,654.862 330.601,666.252C341.972,677.641 355.859,683.416 372.26,683.576C388.661,683.736 402.657,678.233 414.248,667.066ZM689.792,669.738C701.38,658.566 707.252,644.927 707.412,628.814C707.568,612.697 701.957,598.946 690.587,587.556C679.217,576.166 665.329,570.392 648.928,570.232C632.527,570.072 618.531,575.575 606.94,586.746C595.35,597.913 589.477,611.553 589.32,627.67C589.164,643.782 594.772,657.534 606.143,668.923C617.515,680.313 631.401,686.093 647.803,686.248C664.204,686.408 678.199,680.905 689.792,669.738ZM295.691,257.396L736.558,261.671C726.822,250.618 705.754,241.228 673.353,233.501C640.95,225.774 588.666,221.561 516.499,220.861C446.302,220.18 394.926,223.711 362.374,231.453C329.821,239.195 307.593,247.842 295.691,257.396ZM352.203,722.061L667.109,725.111C688.759,725.324 707.364,717.93 722.928,702.933C738.493,687.935 746.382,669.801 746.586,648.529L747.71,532.513L275.352,527.931L274.227,643.952C274.021,665.219 281.553,683.504 296.823,698.801C312.093,714.094 330.554,721.848 352.203,722.061Z" style="fill:#091426;fill-rule:nonzero;"/>
</svg>
