<svg width="142" height="24" viewBox="0 0 142 24" fill="none" xmlns="http://www.w3.org/2000/svg">
<path d="M1.62367 20.024C1.39365 20.0218 1.20159 19.9435 1.04747 19.7891C0.893353 19.6347 0.817391 19.4446 0.819582 19.2186L0.835437 17.5835C0.594469 17.3153 0.401147 17.0177 0.255471 16.6905C0.109796 16.3634 0.038827 16.0071 0.042565 15.6216L0.116037 8.04463C0.126736 6.94132 0.655484 6.13882 1.70228 5.63715C2.74908 5.13547 4.39549 4.89552 6.64153 4.9173C8.96875 4.93987 10.6306 5.20192 11.6271 5.70347C12.6235 6.20502 13.1162 7.02739 13.1051 8.17058L13.0317 15.7476C13.0279 16.1331 12.9501 16.4879 12.7981 16.8122C12.6461 17.1364 12.447 17.4303 12.2009 17.6938L12.1851 19.3288C12.1829 19.5548 12.1032 19.7434 11.9461 19.8948C11.7891 20.0462 11.5955 20.1207 11.3655 20.1185L10.5537 20.1106C10.3237 20.1084 10.1316 20.0301 9.97749 19.8757C9.82337 19.7213 9.74741 19.5312 9.7496 19.3052L9.75733 18.5076L3.26277 18.4446L3.25504 19.2422C3.25285 19.4682 3.17321 19.6568 3.01613 19.8082C2.85905 19.9596 2.6655 20.0341 2.43549 20.0319L1.62367 20.024ZM6.65892 7.31042L11.2051 7.35451L2.11273 7.26634L6.65892 7.31042ZM9.81147 12.9246L1.69327 12.8458L11.4351 12.9403L9.81147 12.9246ZM1.70874 11.2507L11.4506 11.3451L11.4738 8.95242L1.73194 8.85795L1.70874 11.2507ZM4.55783 15.7153C4.79686 15.4849 4.91799 15.2036 4.92122 14.8713C4.92444 14.5389 4.80879 14.2553 4.57426 14.0204C4.33974 13.7855 4.05335 13.6664 3.71509 13.6631C3.37683 13.6598 3.08818 13.7733 2.84915 14.0037C2.61011 14.234 2.48898 14.5153 2.48576 14.8477C2.48254 15.18 2.59819 15.4636 2.83271 15.6985C3.06724 15.9334 3.35363 16.0525 3.69189 16.0558C4.03014 16.0591 4.31879 15.9456 4.55783 15.7153ZM10.2406 15.7704C10.4796 15.54 10.6007 15.2587 10.604 14.9264C10.6072 14.594 10.4915 14.3104 10.257 14.0755C10.0225 13.8406 9.73608 13.7215 9.39782 13.7182C9.05957 13.7149 8.77092 13.8284 8.53188 14.0588C8.29285 14.2891 8.17172 14.5704 8.16849 14.9028C8.16527 15.2351 8.28092 15.5187 8.51545 15.7536C8.74997 15.9885 9.03636 16.1077 9.37462 16.1109C9.71288 16.1142 10.0015 16.0007 10.2406 15.7704ZM2.11273 7.26634L11.2051 7.35451C11.0043 7.12656 10.5698 6.9329 9.90156 6.77354C9.23329 6.61418 8.15499 6.52728 6.66665 6.51285C5.21891 6.49881 4.15935 6.57162 3.48799 6.73129C2.81663 6.89096 2.35821 7.06931 2.11273 7.26634ZM3.27824 16.8495L9.7728 16.9124C10.2193 16.9168 10.603 16.7643 10.924 16.455C11.245 16.1457 11.4077 15.7717 11.4119 15.333L11.4351 12.9403L1.69327 12.8458L1.67007 15.2386C1.66582 15.6772 1.82116 16.0543 2.13609 16.3698C2.45102 16.6852 2.83174 16.8451 3.27824 16.8495Z" fill="#091426"/>
<path d="M28.898 19.304C27.226 19.304 25.9593 18.8797 25.098 18.031C24.2493 17.1823 23.825 15.9093 23.825 14.212V5.757H26.276V13.927C26.276 14.611 26.3457 15.1873 26.485 15.656C26.637 16.112 26.903 16.4603 27.283 16.701C27.6757 16.929 28.214 17.043 28.898 17.043C29.582 17.043 30.114 16.929 30.494 16.701C30.8867 16.4603 31.159 16.112 31.311 15.656C31.463 15.1873 31.539 14.6173 31.539 13.946V5.757H33.99V14.117C33.99 15.8397 33.5593 17.138 32.698 18.012C31.8367 18.8733 30.57 19.304 28.898 19.304ZM36.3123 19V9.633H38.6873V12.179L38.3263 12.217C38.3643 11.6723 38.529 11.191 38.8203 10.773C39.1117 10.355 39.4663 10.032 39.8843 9.804C40.315 9.56333 40.752 9.443 41.1953 9.443C41.512 9.443 41.8097 9.48733 42.0883 9.576C42.3797 9.652 42.6773 9.785 42.9813 9.975L41.8413 12.103C41.702 12.027 41.5247 11.9573 41.3093 11.894C41.094 11.8307 40.8787 11.799 40.6633 11.799C40.41 11.799 40.163 11.8433 39.9223 11.932C39.6943 12.0207 39.4853 12.16 39.2953 12.35C39.118 12.54 38.9723 12.7933 38.8583 13.11C38.8077 13.2873 38.7633 13.5153 38.7253 13.794C38.7 14.06 38.6873 14.4527 38.6873 14.972V19H36.3123ZM49.4372 19.19C48.9685 19.19 48.5125 19.1013 48.0692 18.924C47.6385 18.734 47.2585 18.4237 46.9292 17.993C46.5998 17.5497 46.3528 16.9607 46.1882 16.226L46.7582 16.492V19H44.4022V5.757H46.7582V12.16L46.2642 12.312C46.3782 11.666 46.5872 11.134 46.8912 10.716C47.2078 10.2853 47.5878 9.96867 48.0312 9.766C48.4745 9.55067 48.9432 9.443 49.4372 9.443C50.1718 9.443 50.8432 9.63933 51.4512 10.032C52.0592 10.412 52.5405 10.963 52.8952 11.685C53.2498 12.407 53.4272 13.281 53.4272 14.307C53.4272 15.2317 53.2688 16.0677 52.9522 16.815C52.6355 17.5497 52.1732 18.1323 51.5652 18.563C50.9698 18.981 50.2605 19.19 49.4372 19.19ZM48.7912 17.024C49.2598 17.024 49.6588 16.9163 49.9882 16.701C50.3302 16.473 50.5962 16.1563 50.7862 15.751C50.9762 15.3457 51.0712 14.8643 51.0712 14.307C51.0712 13.7497 50.9762 13.2747 50.7862 12.882C50.5962 12.4767 50.3302 12.1663 49.9882 11.951C49.6588 11.723 49.2598 11.609 48.7912 11.609C48.3352 11.609 47.9362 11.723 47.5942 11.951C47.2648 12.1663 47.0052 12.4767 46.8152 12.882C46.6378 13.2873 46.5492 13.7623 46.5492 14.307C46.5492 14.8517 46.6378 15.3267 46.8152 15.732C47.0052 16.1373 47.2648 16.454 47.5942 16.682C47.9362 16.91 48.3352 17.024 48.7912 17.024ZM61.3163 19L61.1263 17.594V13.091C61.1263 12.5337 60.949 12.122 60.5943 11.856C60.2523 11.5773 59.7837 11.438 59.1883 11.438C58.6943 11.438 58.1877 11.5393 57.6683 11.742C57.1617 11.932 56.712 12.2043 56.3193 12.559L55.1223 10.944C55.781 10.412 56.4523 10.032 57.1363 9.804C57.833 9.56333 58.5803 9.443 59.3783 9.443C60.6703 9.443 61.6773 9.766 62.3993 10.412C63.1213 11.058 63.4823 11.951 63.4823 13.091V19H61.3163ZM58.4853 19.19C57.8013 19.19 57.187 19.0633 56.6423 18.81C56.1103 18.5567 55.686 18.1957 55.3693 17.727C55.0653 17.2583 54.9133 16.72 54.9133 16.112C54.9133 15.5673 55.021 15.105 55.2363 14.725C55.4643 14.3323 55.762 14.0347 56.1293 13.832C56.446 13.642 56.7943 13.509 57.1743 13.433C57.567 13.357 57.985 13.319 58.4283 13.319H61.3353V15.067H58.7703C58.5677 15.067 58.365 15.086 58.1623 15.124C57.9723 15.1493 57.8077 15.219 57.6683 15.333C57.5417 15.4217 57.4467 15.5357 57.3833 15.675C57.32 15.8017 57.2883 15.9473 57.2883 16.112C57.2883 16.4667 57.4277 16.7517 57.7063 16.967C57.985 17.1823 58.3587 17.29 58.8273 17.29C59.2453 17.29 59.6253 17.2013 59.9673 17.024C60.322 16.834 60.6007 16.5807 60.8033 16.264C61.0187 15.9347 61.1263 15.561 61.1263 15.143L61.7533 16.397C61.5887 17.0557 61.3353 17.594 60.9933 18.012C60.664 18.4173 60.284 18.715 59.8533 18.905C59.4227 19.095 58.9667 19.19 58.4853 19.19ZM65.6844 19V9.633H68.0594V11.761L67.6794 11.799C67.8441 11.229 68.0847 10.773 68.4014 10.431C68.7181 10.089 69.0854 9.842 69.5034 9.69C69.9214 9.52533 70.3521 9.443 70.7954 9.443C71.8594 9.443 72.6891 9.747 73.2844 10.355C73.8924 10.9503 74.1964 11.7927 74.1964 12.882V19H71.8214V13.756C71.8214 12.9707 71.6821 12.4007 71.4034 12.046C71.1247 11.6787 70.6877 11.495 70.0924 11.495C69.6364 11.495 69.2564 11.6027 68.9524 11.818C68.6611 12.0207 68.4394 12.3437 68.2874 12.787C68.1354 13.2303 68.0594 13.8067 68.0594 14.516V19H65.6844ZM79.563 19V7.961H75.459V5.757H86.137V7.961H82.052V19H79.563ZM86.1873 19V9.633H88.5623V12.179L88.2013 12.217C88.2393 11.6723 88.404 11.191 88.6953 10.773C88.9867 10.355 89.3413 10.032 89.7593 9.804C90.19 9.56333 90.627 9.443 91.0703 9.443C91.387 9.443 91.6847 9.48733 91.9633 9.576C92.2547 9.652 92.5523 9.785 92.8563 9.975L91.7163 12.103C91.577 12.027 91.3997 11.9573 91.1843 11.894C90.969 11.8307 90.7537 11.799 90.5383 11.799C90.285 11.799 90.038 11.8433 89.7973 11.932C89.5693 12.0207 89.3603 12.16 89.1703 12.35C88.993 12.54 88.8473 12.7933 88.7333 13.11C88.6827 13.2873 88.6383 13.5153 88.6003 13.794C88.575 14.06 88.5623 14.4527 88.5623 14.972V19H86.1873ZM100.096 19L99.9056 17.594V13.091C99.9056 12.5337 99.7283 12.122 99.3736 11.856C99.0316 11.5773 98.563 11.438 97.9676 11.438C97.4736 11.438 96.967 11.5393 96.4476 11.742C95.941 11.932 95.4913 12.2043 95.0986 12.559L93.9016 10.944C94.5603 10.412 95.2316 10.032 95.9156 9.804C96.6123 9.56333 97.3596 9.443 98.1576 9.443C99.4496 9.443 100.457 9.766 101.179 10.412C101.901 11.058 102.262 11.951 102.262 13.091V19H100.096ZM97.2646 19.19C96.5806 19.19 95.9663 19.0633 95.4216 18.81C94.8896 18.5567 94.4653 18.1957 94.1486 17.727C93.8446 17.2583 93.6926 16.72 93.6926 16.112C93.6926 15.5673 93.8003 15.105 94.0156 14.725C94.2436 14.3323 94.5413 14.0347 94.9086 13.832C95.2253 13.642 95.5736 13.509 95.9536 13.433C96.3463 13.357 96.7643 13.319 97.2076 13.319H100.115V15.067H97.5496C97.347 15.067 97.1443 15.086 96.9416 15.124C96.7516 15.1493 96.587 15.219 96.4476 15.333C96.321 15.4217 96.226 15.5357 96.1626 15.675C96.0993 15.8017 96.0676 15.9473 96.0676 16.112C96.0676 16.4667 96.207 16.7517 96.4856 16.967C96.7643 17.1823 97.138 17.29 97.6066 17.29C98.0246 17.29 98.4046 17.2013 98.7466 17.024C99.1013 16.834 99.38 16.5807 99.5826 16.264C99.798 15.9347 99.9056 15.561 99.9056 15.143L100.533 16.397C100.368 17.0557 100.115 17.594 99.7726 18.012C99.4433 18.4173 99.0633 18.715 98.6326 18.905C98.202 19.095 97.746 19.19 97.2646 19.19ZM104.464 19V9.633H106.839V11.761L106.459 11.799C106.623 11.229 106.864 10.773 107.181 10.431C107.497 10.089 107.865 9.842 108.283 9.69C108.701 9.52533 109.131 9.443 109.575 9.443C110.639 9.443 111.468 9.747 112.064 10.355C112.672 10.9503 112.976 11.7927 112.976 12.882V19H110.601V13.756C110.601 12.9707 110.461 12.4007 110.183 12.046C109.904 11.6787 109.467 11.495 108.872 11.495C108.416 11.495 108.036 11.6027 107.732 11.818C107.44 12.0207 107.219 12.3437 107.067 12.787C106.915 13.2303 106.839 13.8067 106.839 14.516V19H104.464ZM118.437 19.19C117.741 19.19 117.133 19.0887 116.613 18.886C116.094 18.6833 115.651 18.43 115.283 18.126C114.929 17.822 114.644 17.5307 114.428 17.252L116.043 15.846C116.259 16.2007 116.563 16.53 116.955 16.834C117.361 17.1253 117.861 17.271 118.456 17.271C118.925 17.271 119.286 17.1823 119.539 17.005C119.805 16.815 119.938 16.5807 119.938 16.302C119.938 16.074 119.856 15.8903 119.691 15.751C119.527 15.599 119.305 15.4787 119.026 15.39C118.748 15.2887 118.437 15.1937 118.095 15.105C117.741 15.0037 117.373 14.8897 116.993 14.763C116.613 14.6363 116.265 14.4717 115.948 14.269C115.632 14.0537 115.372 13.7813 115.169 13.452C114.979 13.1227 114.884 12.711 114.884 12.217C114.884 11.3937 115.207 10.7287 115.853 10.222C116.499 9.70267 117.354 9.443 118.418 9.443C119.166 9.443 119.843 9.595 120.451 9.899C121.059 10.1903 121.541 10.6147 121.895 11.172L120.432 12.331C120.204 11.9637 119.9 11.6913 119.52 11.514C119.153 11.324 118.76 11.229 118.342 11.229C117.975 11.229 117.671 11.2987 117.43 11.438C117.202 11.5773 117.088 11.7673 117.088 12.008C117.088 12.1727 117.139 12.312 117.24 12.426C117.354 12.54 117.532 12.6413 117.772 12.73C118.026 12.806 118.355 12.8947 118.76 12.996C119.14 13.0847 119.533 13.1923 119.938 13.319C120.344 13.4457 120.724 13.6167 121.078 13.832C121.433 14.0473 121.718 14.3323 121.933 14.687C122.149 15.0417 122.256 15.4913 122.256 16.036C122.256 16.6567 122.098 17.2077 121.781 17.689C121.465 18.1577 121.021 18.525 120.451 18.791C119.881 19.057 119.21 19.19 118.437 19.19ZM124.131 19V9.633H126.487V19H124.131ZM124.055 8.189V5.757H126.582V8.189H124.055ZM132.379 19.19C131.873 19.19 131.404 19.095 130.973 18.905C130.543 18.715 130.194 18.4047 129.928 17.974C129.675 17.5433 129.548 16.967 129.548 16.245V7.448L131.942 6.175V15.599C131.942 16.1437 132.012 16.5553 132.151 16.834C132.303 17.1127 132.595 17.252 133.025 17.252C133.152 17.252 133.291 17.2393 133.443 17.214C133.608 17.1887 133.785 17.1507 133.975 17.1V18.905C133.709 19.0063 133.443 19.076 133.177 19.114C132.911 19.1647 132.645 19.19 132.379 19.19ZM127.838 11.476V9.633H133.975V11.476H127.838Z" fill="#091426"/>
</svg>
