<?xml version="1.0" encoding="UTF-8" standalone="no"?>
<!DOCTYPE svg PUBLIC "-//W3C//DTD SVG 1.1//EN" "http://www.w3.org/Graphics/SVG/1.1/DTD/svg11.dtd">
<svg width="100%" height="100%" viewBox="0 0 79 61" version="1.1" xmlns="http://www.w3.org/2000/svg" xmlns:xlink="http://www.w3.org/1999/xlink" xml:space="preserve" xmlns:serif="http://www.serif.com/" style="fill-rule:evenodd;clip-rule:evenodd;stroke-linejoin:round;stroke-miterlimit:2;">
    <path d="M2.622,57.243C2.207,57.706 1.549,57.866 0.968,57.643C0.387,57.421 0.004,56.863 0.005,56.24C0.018,45.523 0.054,15.845 0.067,4.495C0.07,2.011 2.084,0 4.567,-0C18.331,0 59.8,0 73.571,0C76.056,0 78.071,2.015 78.071,4.5C78.071,12.62 78.071,29.63 78.071,37.75C78.071,40.235 76.056,42.25 73.571,42.25C61.151,42.25 26.739,42.25 18.053,42.25C16.773,42.25 15.554,42.795 14.7,43.749C12.046,46.714 6.083,53.376 2.622,57.243Z" style="fill:#18295e;fill-rule:nonzero;"/>
</svg>
